<?xml version="1.0" standalone="no"?>
<!DOCTYPE svg PUBLIC "-//W3C//DTD SVG 20010904//EN"
 "http://www.w3.org/TR/2001/REC-SVG-20010904/DTD/svg10.dtd">
<svg version="1.0" xmlns="http://www.w3.org/2000/svg"
 width="400.000000pt" height="400.000000pt" viewBox="0 0 400.000000 400.000000"
 preserveAspectRatio="xMidYMid meet">

<g transform="translate(0.000000,400.000000) scale(0.100000,-0.100000)"
fill="#000000" stroke="none">
<path d="M1840 2872 c-156 -296 -292 -553 -426 -804 -52 -97 -94 -179 -94
-182 0 -3 51 12 113 34 256 87 499 79 754 -24 l82 -34 -46 87 c-26 47 -69 129
-98 181 -28 52 -71 134 -95 182 -25 49 -47 88 -50 88 -3 0 -17 -21 -30 -48
-14 -26 -54 -99 -89 -163 l-64 -116 -118 -11 c-65 -7 -129 -16 -142 -21 -14
-6 -27 -8 -30 -5 -2 3 62 132 143 287 81 155 186 356 233 447 47 90 89 166 94
167 7 3 128 -218 311 -567 25 -47 86 -164 137 -260 51 -96 132 -251 180 -345
48 -93 123 -238 166 -321 44 -84 79 -157 79 -163 0 -8 -42 -11 -134 -11 l-134
0 -49 86 c-55 100 -154 216 -232 274 -74 56 -197 114 -310 146 -86 25 -103 26
-225 21 -143 -6 -229 -25 -337 -74 -189 -86 -311 -210 -423 -427 -31 -59 -56
-110 -56 -112 0 -2 109 -4 243 -4 l242 1 135 256 c74 141 140 261 145 268 18
21 228 2 314 -30 199 -73 345 -201 441 -388 l55 -107 243 0 c133 0 242 1 242
3 0 5 -525 1002 -710 1347 -90 168 -196 368 -237 445 -41 77 -77 143 -81 147
-4 4 -68 -109 -142 -250z m188 -753 c44 -74 51 -95 28 -86 -8 3 -43 11 -78 17
-34 7 -66 14 -69 16 -8 4 60 124 70 124 3 0 25 -32 49 -71z m-438 -444 c0 -5
-87 -173 -170 -327 l-39 -73 -141 -3 -140 -3 14 35 c40 97 153 222 262 292 84
54 214 102 214 79z"/>
</g>
</svg>
